G04 #@! TF.FileFunction,Legend,Top*
%FSLAX46Y46*%
G04 Gerber Fmt 4.6, Leading zero omitted, Abs format (unit mm)*
G04 Created by KiCad (PCBNEW 4.0.3+e1-6302~38~ubuntu16.04.1-stable) date Sun Aug 14 03:32:14 2016*
%MOMM*%
%LPD*%
G01*
G04 APERTURE LIST*
%ADD10C,0.100000*%
%ADD11C,0.120000*%
%ADD12C,0.250000*%
G04 APERTURE END LIST*
D10*
D11*
X139085000Y-114210000D02*
X139085000Y-112490000D01*
X137315000Y-114210000D02*
X137315000Y-112490000D01*
X159610000Y-101660000D02*
X159610000Y-99940000D01*
X157990000Y-101660000D02*
X157990000Y-99940000D01*
X137390000Y-96653000D02*
X137390000Y-98373000D01*
X139010000Y-96653000D02*
X139010000Y-98373000D01*
X139110000Y-106623000D02*
X139110000Y-104903000D01*
X137490000Y-106623000D02*
X137490000Y-104903000D01*
X139110000Y-103660000D02*
X139110000Y-101940000D01*
X137490000Y-103660000D02*
X137490000Y-101940000D01*
X159610000Y-105823000D02*
X159610000Y-104103000D01*
X157990000Y-105823000D02*
X157990000Y-104103000D01*
X157990000Y-109303000D02*
X157990000Y-111023000D01*
X159610000Y-109303000D02*
X159610000Y-111023000D01*
X157990000Y-112253000D02*
X157990000Y-113973000D01*
X159610000Y-112253000D02*
X159610000Y-113973000D01*
X139210000Y-100100000D02*
G75*
G03X139210000Y-100100000I-1010000J0D01*
G01*
X159710000Y-115700000D02*
G75*
G03X159710000Y-115700000I-1010000J0D01*
G01*
X159860000Y-107550000D02*
G75*
G03X159860000Y-107550000I-1010000J0D01*
G01*
X140440000Y-94343600D02*
X156560000Y-94343600D01*
X156560000Y-94343600D02*
X156560000Y-99393600D01*
X156560000Y-100813600D02*
X156560000Y-101393600D01*
X156560000Y-102813600D02*
X156560000Y-103393600D01*
X156560000Y-104813600D02*
X156560000Y-105393600D01*
X156560000Y-106813600D02*
X156560000Y-107393600D01*
X156560000Y-108813600D02*
X156560000Y-109393600D01*
X156560000Y-110813600D02*
X156560000Y-111393600D01*
X156560000Y-112813600D02*
X156560000Y-113393600D01*
X156560000Y-114813600D02*
X156560000Y-115663600D01*
X156560000Y-115663600D02*
X140440000Y-115663600D01*
X140440000Y-94343600D02*
X140440000Y-99393600D01*
X140440000Y-100813600D02*
X140440000Y-101393600D01*
X140440000Y-102813600D02*
X140440000Y-103393600D01*
X140440000Y-104813600D02*
X140440000Y-105393600D01*
X140440000Y-106813600D02*
X140440000Y-107393600D01*
X140440000Y-108813600D02*
X140440000Y-109393600D01*
X140440000Y-110813600D02*
X140440000Y-111393600D01*
X140440000Y-112813600D02*
X140440000Y-113393600D01*
X140440000Y-114813600D02*
X140440000Y-115663600D01*
D12*
X140625000Y-93913600D02*
G75*
G03X140625000Y-93913600I-125000J0D01*
G01*
D11*
X140440000Y-99393600D02*
X139390000Y-99393600D01*
X139390000Y-99393600D02*
X139390000Y-100553600D01*
X138033334Y-116057143D02*
X137985715Y-116104762D01*
X137842858Y-116152381D01*
X137747620Y-116152381D01*
X137604762Y-116104762D01*
X137509524Y-116009524D01*
X137461905Y-115914286D01*
X137414286Y-115723810D01*
X137414286Y-115580952D01*
X137461905Y-115390476D01*
X137509524Y-115295238D01*
X137604762Y-115200000D01*
X137747620Y-115152381D01*
X137842858Y-115152381D01*
X137985715Y-115200000D01*
X138033334Y-115247619D01*
X138366667Y-115152381D02*
X138985715Y-115152381D01*
X138652381Y-115533333D01*
X138795239Y-115533333D01*
X138890477Y-115580952D01*
X138938096Y-115628571D01*
X138985715Y-115723810D01*
X138985715Y-115961905D01*
X138938096Y-116057143D01*
X138890477Y-116104762D01*
X138795239Y-116152381D01*
X138509524Y-116152381D01*
X138414286Y-116104762D01*
X138366667Y-116057143D01*
X158633334Y-99052381D02*
X158300000Y-98576190D01*
X158061905Y-99052381D02*
X158061905Y-98052381D01*
X158442858Y-98052381D01*
X158538096Y-98100000D01*
X158585715Y-98147619D01*
X158633334Y-98242857D01*
X158633334Y-98385714D01*
X158585715Y-98480952D01*
X158538096Y-98528571D01*
X158442858Y-98576190D01*
X158061905Y-98576190D01*
X159585715Y-99052381D02*
X159014286Y-99052381D01*
X159300000Y-99052381D02*
X159300000Y-98052381D01*
X159204762Y-98195238D01*
X159109524Y-98290476D01*
X159014286Y-98338095D01*
X138133334Y-95865381D02*
X137800000Y-95389190D01*
X137561905Y-95865381D02*
X137561905Y-94865381D01*
X137942858Y-94865381D01*
X138038096Y-94913000D01*
X138085715Y-94960619D01*
X138133334Y-95055857D01*
X138133334Y-95198714D01*
X138085715Y-95293952D01*
X138038096Y-95341571D01*
X137942858Y-95389190D01*
X137561905Y-95389190D01*
X138466667Y-94865381D02*
X139085715Y-94865381D01*
X138752381Y-95246333D01*
X138895239Y-95246333D01*
X138990477Y-95293952D01*
X139038096Y-95341571D01*
X139085715Y-95436810D01*
X139085715Y-95674905D01*
X139038096Y-95770143D01*
X138990477Y-95817762D01*
X138895239Y-95865381D01*
X138609524Y-95865381D01*
X138514286Y-95817762D01*
X138466667Y-95770143D01*
X138233334Y-108352381D02*
X137900000Y-107876190D01*
X137661905Y-108352381D02*
X137661905Y-107352381D01*
X138042858Y-107352381D01*
X138138096Y-107400000D01*
X138185715Y-107447619D01*
X138233334Y-107542857D01*
X138233334Y-107685714D01*
X138185715Y-107780952D01*
X138138096Y-107828571D01*
X138042858Y-107876190D01*
X137661905Y-107876190D01*
X139090477Y-107685714D02*
X139090477Y-108352381D01*
X138852381Y-107304762D02*
X138614286Y-108019048D01*
X139233334Y-108019048D01*
X137252381Y-102766666D02*
X136776190Y-103100000D01*
X137252381Y-103338095D02*
X136252381Y-103338095D01*
X136252381Y-102957142D01*
X136300000Y-102861904D01*
X136347619Y-102814285D01*
X136442857Y-102766666D01*
X136585714Y-102766666D01*
X136680952Y-102814285D01*
X136728571Y-102861904D01*
X136776190Y-102957142D01*
X136776190Y-103338095D01*
X136252381Y-101861904D02*
X136252381Y-102338095D01*
X136728571Y-102385714D01*
X136680952Y-102338095D01*
X136633333Y-102242857D01*
X136633333Y-102004761D01*
X136680952Y-101909523D01*
X136728571Y-101861904D01*
X136823810Y-101814285D01*
X137061905Y-101814285D01*
X137157143Y-101861904D01*
X137204762Y-101909523D01*
X137252381Y-102004761D01*
X137252381Y-102242857D01*
X137204762Y-102338095D01*
X137157143Y-102385714D01*
X159533334Y-103452381D02*
X159200000Y-102976190D01*
X158961905Y-103452381D02*
X158961905Y-102452381D01*
X159342858Y-102452381D01*
X159438096Y-102500000D01*
X159485715Y-102547619D01*
X159533334Y-102642857D01*
X159533334Y-102785714D01*
X159485715Y-102880952D01*
X159438096Y-102928571D01*
X159342858Y-102976190D01*
X158961905Y-102976190D01*
X160390477Y-102452381D02*
X160200000Y-102452381D01*
X160104762Y-102500000D01*
X160057143Y-102547619D01*
X159961905Y-102690476D01*
X159914286Y-102880952D01*
X159914286Y-103261905D01*
X159961905Y-103357143D01*
X160009524Y-103404762D01*
X160104762Y-103452381D01*
X160295239Y-103452381D01*
X160390477Y-103404762D01*
X160438096Y-103357143D01*
X160485715Y-103261905D01*
X160485715Y-103023810D01*
X160438096Y-102928571D01*
X160390477Y-102880952D01*
X160295239Y-102833333D01*
X160104762Y-102833333D01*
X160009524Y-102880952D01*
X159961905Y-102928571D01*
X159914286Y-103023810D01*
X160852381Y-110366666D02*
X160376190Y-110700000D01*
X160852381Y-110938095D02*
X159852381Y-110938095D01*
X159852381Y-110557142D01*
X159900000Y-110461904D01*
X159947619Y-110414285D01*
X160042857Y-110366666D01*
X160185714Y-110366666D01*
X160280952Y-110414285D01*
X160328571Y-110461904D01*
X160376190Y-110557142D01*
X160376190Y-110938095D01*
X159852381Y-110033333D02*
X159852381Y-109366666D01*
X160852381Y-109795238D01*
X160852381Y-113266666D02*
X160376190Y-113600000D01*
X160852381Y-113838095D02*
X159852381Y-113838095D01*
X159852381Y-113457142D01*
X159900000Y-113361904D01*
X159947619Y-113314285D01*
X160042857Y-113266666D01*
X160185714Y-113266666D01*
X160280952Y-113314285D01*
X160328571Y-113361904D01*
X160376190Y-113457142D01*
X160376190Y-113838095D01*
X160280952Y-112695238D02*
X160233333Y-112790476D01*
X160185714Y-112838095D01*
X160090476Y-112885714D01*
X160042857Y-112885714D01*
X159947619Y-112838095D01*
X159900000Y-112790476D01*
X159852381Y-112695238D01*
X159852381Y-112504761D01*
X159900000Y-112409523D01*
X159947619Y-112361904D01*
X160042857Y-112314285D01*
X160090476Y-112314285D01*
X160185714Y-112361904D01*
X160233333Y-112409523D01*
X160280952Y-112504761D01*
X160280952Y-112695238D01*
X160328571Y-112790476D01*
X160376190Y-112838095D01*
X160471429Y-112885714D01*
X160661905Y-112885714D01*
X160757143Y-112838095D01*
X160804762Y-112790476D01*
X160852381Y-112695238D01*
X160852381Y-112504761D01*
X160804762Y-112409523D01*
X160757143Y-112361904D01*
X160661905Y-112314285D01*
X160471429Y-112314285D01*
X160376190Y-112361904D01*
X160328571Y-112409523D01*
X160280952Y-112504761D01*
X136152381Y-101261905D02*
X136152381Y-100690476D01*
X137152381Y-100976191D02*
X136152381Y-100976191D01*
X137152381Y-100357143D02*
X136152381Y-100357143D01*
X136152381Y-99976190D01*
X136200000Y-99880952D01*
X136247619Y-99833333D01*
X136342857Y-99785714D01*
X136485714Y-99785714D01*
X136580952Y-99833333D01*
X136628571Y-99880952D01*
X136676190Y-99976190D01*
X136676190Y-100357143D01*
X137152381Y-98833333D02*
X137152381Y-99404762D01*
X137152381Y-99119048D02*
X136152381Y-99119048D01*
X136295238Y-99214286D01*
X136390476Y-99309524D01*
X136438095Y-99404762D01*
X159852381Y-116861905D02*
X159852381Y-116290476D01*
X160852381Y-116576191D02*
X159852381Y-116576191D01*
X160852381Y-115957143D02*
X159852381Y-115957143D01*
X159852381Y-115576190D01*
X159900000Y-115480952D01*
X159947619Y-115433333D01*
X160042857Y-115385714D01*
X160185714Y-115385714D01*
X160280952Y-115433333D01*
X160328571Y-115480952D01*
X160376190Y-115576190D01*
X160376190Y-115957143D01*
X159947619Y-115004762D02*
X159900000Y-114957143D01*
X159852381Y-114861905D01*
X159852381Y-114623809D01*
X159900000Y-114528571D01*
X159947619Y-114480952D01*
X160042857Y-114433333D01*
X160138095Y-114433333D01*
X160280952Y-114480952D01*
X160852381Y-115052381D01*
X160852381Y-114433333D01*
X159852381Y-108811905D02*
X159852381Y-108240476D01*
X160852381Y-108526191D02*
X159852381Y-108526191D01*
X160852381Y-107907143D02*
X159852381Y-107907143D01*
X159852381Y-107526190D01*
X159900000Y-107430952D01*
X159947619Y-107383333D01*
X160042857Y-107335714D01*
X160185714Y-107335714D01*
X160280952Y-107383333D01*
X160328571Y-107430952D01*
X160376190Y-107526190D01*
X160376190Y-107907143D01*
X159852381Y-107002381D02*
X159852381Y-106383333D01*
X160233333Y-106716667D01*
X160233333Y-106573809D01*
X160280952Y-106478571D01*
X160328571Y-106430952D01*
X160423810Y-106383333D01*
X160661905Y-106383333D01*
X160757143Y-106430952D01*
X160804762Y-106478571D01*
X160852381Y-106573809D01*
X160852381Y-106859524D01*
X160804762Y-106954762D01*
X160757143Y-107002381D01*
X147585714Y-92842857D02*
X147585714Y-93814286D01*
X147642857Y-93928571D01*
X147700000Y-93985714D01*
X147814286Y-94042857D01*
X148042857Y-94042857D01*
X148157143Y-93985714D01*
X148214286Y-93928571D01*
X148271429Y-93814286D01*
X148271429Y-92842857D01*
X148785714Y-92957143D02*
X148842857Y-92900000D01*
X148957143Y-92842857D01*
X149242857Y-92842857D01*
X149357143Y-92900000D01*
X149414286Y-92957143D01*
X149471429Y-93071429D01*
X149471429Y-93185714D01*
X149414286Y-93357143D01*
X148728572Y-94042857D01*
X149471429Y-94042857D01*
M02*
