G04 #@! TF.FileFunction,Copper,L2,Bot,Signal*
%FSLAX46Y46*%
G04 Gerber Fmt 4.6, Leading zero omitted, Abs format (unit mm)*
G04 Created by KiCad (PCBNEW 4.0.2-4+6225~38~ubuntu15.10.1-stable) date Ср. 27 апр. 2016 12:01:26*
%MOMM*%
G01*
G04 APERTURE LIST*
%ADD10C,0.100000*%
%ADD11R,0.700000X1.800000*%
%ADD12R,1.600000X2.200000*%
%ADD13R,2.100000X3.350000*%
%ADD14R,3.350000X2.100000*%
%ADD15R,1.100000X0.750000*%
%ADD16C,1.500000*%
%ADD17R,2.150000X0.950000*%
%ADD18R,2.150000X3.250000*%
%ADD19C,0.800000*%
%ADD20C,0.700000*%
%ADD21C,0.250000*%
G04 APERTURE END LIST*
D10*
D11*
X145376100Y-110800000D03*
X146626100Y-110800000D03*
X147876100Y-110800000D03*
X149126100Y-110800000D03*
X150376100Y-110800000D03*
X151626100Y-110800000D03*
D12*
X143826100Y-114100000D03*
X153176100Y-114100000D03*
D13*
X139800000Y-109200000D03*
X143200000Y-109200000D03*
D14*
X149100000Y-102900000D03*
X149100000Y-99500000D03*
D15*
X146800000Y-109100000D03*
X146800000Y-107700000D03*
D16*
X138200000Y-100100000D03*
X158700000Y-115700000D03*
X158800000Y-108100000D03*
D17*
X145400000Y-101200000D03*
X145400000Y-103500000D03*
X145400000Y-105800000D03*
D18*
X139600000Y-103500000D03*
D19*
X143620000Y-103400000D03*
X143240000Y-104370000D03*
X143240000Y-102410000D03*
X142310000Y-105050000D03*
X142309996Y-104070000D03*
X142310000Y-103030000D03*
D20*
X158420000Y-102520000D03*
X155290000Y-102100000D03*
D19*
X152000000Y-103000000D03*
X153000000Y-100000000D03*
X138000000Y-94000000D03*
X141000000Y-94000000D03*
X143000000Y-97000000D03*
X144000000Y-94000000D03*
X146000000Y-97000000D03*
X149000000Y-97000000D03*
X147000000Y-94000000D03*
X150000000Y-94000000D03*
X153000000Y-94000000D03*
X156000000Y-94000000D03*
X159000000Y-94000000D03*
X158000000Y-97000000D03*
X155000000Y-97000000D03*
X152000000Y-97000000D03*
X136800000Y-98200000D03*
X137000000Y-101600000D03*
X136900000Y-103500000D03*
X136900000Y-105300000D03*
X137100000Y-107400000D03*
X137000000Y-109600000D03*
X137000000Y-111700000D03*
D20*
X146000000Y-115000000D03*
X147000000Y-113000000D03*
X148000000Y-115000000D03*
X149000000Y-113000000D03*
X150000000Y-115000000D03*
X151000000Y-113000000D03*
D19*
X154800000Y-112300000D03*
X154600000Y-109000000D03*
X154400000Y-106100000D03*
X153500000Y-107600000D03*
X151900000Y-108600000D03*
X153100000Y-109500000D03*
X153980000Y-110810000D03*
X137930000Y-110520000D03*
X137950000Y-108780000D03*
D21*
X143720000Y-103500000D02*
X143620000Y-103400000D01*
X145400000Y-103500000D02*
X143720000Y-103500000D01*
X143240000Y-103780000D02*
X143620000Y-103400000D01*
X143240000Y-104370000D02*
X143240000Y-103780000D01*
X143710000Y-102410000D02*
X143240000Y-102410000D01*
X145400000Y-103500000D02*
X144800000Y-103500000D01*
X144800000Y-103500000D02*
X143710000Y-102410000D01*
X142310000Y-103030000D02*
X142310000Y-104069996D01*
X142310000Y-104069996D02*
X142309996Y-104070000D01*
X146626100Y-110800000D02*
X146626100Y-109273900D01*
X146626100Y-109273900D02*
X146800000Y-109100000D01*
X147876100Y-110800000D02*
X147876100Y-109650000D01*
X154996100Y-103130000D02*
X157810000Y-103130000D01*
X147876100Y-109650000D02*
X149376090Y-108150010D01*
X149376090Y-108150010D02*
X149976090Y-108150010D01*
X149976090Y-108150010D02*
X154996100Y-103130000D01*
X157810000Y-103130000D02*
X158420000Y-102520000D01*
X149690000Y-107700000D02*
X155290000Y-102100000D01*
X146800000Y-107700000D02*
X149690000Y-107700000D01*
X153000000Y-100000000D02*
X152000000Y-101000000D01*
X152000000Y-101000000D02*
X152000000Y-103000000D01*
X138000000Y-94000000D02*
X139000000Y-94000000D01*
X143000000Y-97000000D02*
X143000000Y-96000000D01*
X143000000Y-96000000D02*
X141000000Y-94000000D01*
X146000000Y-97000000D02*
X146000000Y-96000000D01*
X146000000Y-96000000D02*
X144000000Y-94000000D01*
X147000000Y-94000000D02*
X147000000Y-95000000D01*
X147000000Y-95000000D02*
X149000000Y-97000000D01*
X153000000Y-94000000D02*
X150000000Y-94000000D01*
X159000000Y-94000000D02*
X156000000Y-94000000D01*
X155000000Y-97000000D02*
X158000000Y-97000000D01*
X149100000Y-99500000D02*
X149725000Y-99500000D01*
X149725000Y-99500000D02*
X152000000Y-97225000D01*
X152000000Y-97225000D02*
X152000000Y-97000000D01*
X136800000Y-98200000D02*
X136800000Y-96800000D01*
X136900000Y-101700000D02*
X137000000Y-101600000D01*
X136900000Y-103500000D02*
X136900000Y-101700000D01*
X137100000Y-107400000D02*
X137100000Y-105500000D01*
X137100000Y-105500000D02*
X136900000Y-105300000D01*
X137000000Y-111700000D02*
X137000000Y-109600000D01*
X148000000Y-115000000D02*
X148000000Y-114000000D01*
X148000000Y-114000000D02*
X147000000Y-113000000D01*
X150000000Y-115000000D02*
X150000000Y-114000000D01*
X150000000Y-114000000D02*
X149000000Y-113000000D01*
X151626100Y-110800000D02*
X151626100Y-112373900D01*
X151626100Y-112373900D02*
X151000000Y-113000000D01*
X149100000Y-99500000D02*
X148475000Y-99500000D01*
X154800000Y-112300000D02*
X155199999Y-111900001D01*
X155199999Y-111900001D02*
X155199999Y-111099999D01*
X154400000Y-106100000D02*
X154400000Y-108800000D01*
X154400000Y-108800000D02*
X154600000Y-109000000D01*
X151900000Y-108600000D02*
X152500000Y-108600000D01*
X152500000Y-108600000D02*
X153500000Y-107600000D01*
X153980000Y-110810000D02*
X153980000Y-110380000D01*
X153980000Y-110380000D02*
X153100000Y-109500000D01*
X153980000Y-110810000D02*
X151636100Y-110810000D01*
X151636100Y-110810000D02*
X151626100Y-110800000D01*
X137950000Y-108780000D02*
X137950000Y-110500000D01*
X137950000Y-110500000D02*
X137930000Y-110520000D01*
D10*
G36*
X146550000Y-106379290D02*
X145764645Y-107164645D01*
X145753675Y-107181185D01*
X145750000Y-107200000D01*
X145750000Y-111750000D01*
X144920710Y-111750000D01*
X144135355Y-110964645D01*
X144118815Y-110953675D01*
X144100000Y-110950000D01*
X142050000Y-110950000D01*
X142050000Y-107420710D01*
X144220710Y-105250000D01*
X146550000Y-105250000D01*
X146550000Y-106379290D01*
X146550000Y-106379290D01*
G37*
X146550000Y-106379290D02*
X145764645Y-107164645D01*
X145753675Y-107181185D01*
X145750000Y-107200000D01*
X145750000Y-111750000D01*
X144920710Y-111750000D01*
X144135355Y-110964645D01*
X144118815Y-110953675D01*
X144100000Y-110950000D01*
X142050000Y-110950000D01*
X142050000Y-107420710D01*
X144220710Y-105250000D01*
X146550000Y-105250000D01*
X146550000Y-106379290D01*
G36*
X160675000Y-116675000D02*
X158984006Y-116675000D01*
X159005916Y-116672616D01*
X159171427Y-116604059D01*
X159262337Y-116474469D01*
X158700000Y-115912132D01*
X158137663Y-116474469D01*
X158228573Y-116604059D01*
X158471328Y-116675000D01*
X136325000Y-116675000D01*
X136325000Y-115610426D01*
X157684351Y-115610426D01*
X157727384Y-116005916D01*
X157795941Y-116171427D01*
X157925531Y-116262337D01*
X158487868Y-115700000D01*
X158912132Y-115700000D01*
X159474469Y-116262337D01*
X159604059Y-116171427D01*
X159715649Y-115789574D01*
X159672616Y-115394084D01*
X159604059Y-115228573D01*
X159474469Y-115137663D01*
X158912132Y-115700000D01*
X158487868Y-115700000D01*
X157925531Y-115137663D01*
X157795941Y-115228573D01*
X157684351Y-115610426D01*
X136325000Y-115610426D01*
X136325000Y-113000000D01*
X142771203Y-113000000D01*
X142771203Y-115200000D01*
X142788635Y-115292644D01*
X142843388Y-115377732D01*
X142926931Y-115434815D01*
X143026100Y-115454897D01*
X144626100Y-115454897D01*
X144718744Y-115437465D01*
X144803832Y-115382712D01*
X144860915Y-115299169D01*
X144880997Y-115200000D01*
X144880997Y-113000000D01*
X152121203Y-113000000D01*
X152121203Y-115200000D01*
X152138635Y-115292644D01*
X152193388Y-115377732D01*
X152276931Y-115434815D01*
X152376100Y-115454897D01*
X153976100Y-115454897D01*
X154068744Y-115437465D01*
X154153832Y-115382712D01*
X154210915Y-115299169D01*
X154230997Y-115200000D01*
X154230997Y-114925531D01*
X158137663Y-114925531D01*
X158700000Y-115487868D01*
X159262337Y-114925531D01*
X159171427Y-114795941D01*
X158789574Y-114684351D01*
X158394084Y-114727384D01*
X158228573Y-114795941D01*
X158137663Y-114925531D01*
X154230997Y-114925531D01*
X154230997Y-113000000D01*
X154213565Y-112907356D01*
X154158812Y-112822268D01*
X154075269Y-112765185D01*
X153976100Y-112745103D01*
X152376100Y-112745103D01*
X152283456Y-112762535D01*
X152198368Y-112817288D01*
X152141285Y-112900831D01*
X152121203Y-113000000D01*
X144880997Y-113000000D01*
X144863565Y-112907356D01*
X144808812Y-112822268D01*
X144725269Y-112765185D01*
X144626100Y-112745103D01*
X143026100Y-112745103D01*
X142933456Y-112762535D01*
X142848368Y-112817288D01*
X142791285Y-112900831D01*
X142771203Y-113000000D01*
X136325000Y-113000000D01*
X136325000Y-109412500D01*
X138500000Y-109412500D01*
X138500000Y-110924728D01*
X138538060Y-111016614D01*
X138608386Y-111086940D01*
X138700272Y-111125000D01*
X139587500Y-111125000D01*
X139650000Y-111062500D01*
X139650000Y-109350000D01*
X139950000Y-109350000D01*
X139950000Y-111062500D01*
X140012500Y-111125000D01*
X140899728Y-111125000D01*
X140991614Y-111086940D01*
X141061940Y-111016614D01*
X141100000Y-110924728D01*
X141100000Y-109412500D01*
X141037500Y-109350000D01*
X139950000Y-109350000D01*
X139650000Y-109350000D01*
X138562500Y-109350000D01*
X138500000Y-109412500D01*
X136325000Y-109412500D01*
X136325000Y-107475272D01*
X138500000Y-107475272D01*
X138500000Y-108987500D01*
X138562500Y-109050000D01*
X139650000Y-109050000D01*
X139650000Y-107337500D01*
X139950000Y-107337500D01*
X139950000Y-109050000D01*
X141037500Y-109050000D01*
X141100000Y-108987500D01*
X141100000Y-107475272D01*
X141068822Y-107400000D01*
X141750000Y-107400000D01*
X141750000Y-111000000D01*
X141767097Y-111090864D01*
X141820798Y-111174318D01*
X141902736Y-111230304D01*
X142000000Y-111250000D01*
X143996446Y-111250000D01*
X144723223Y-111976777D01*
X144802736Y-112030304D01*
X144900000Y-112050000D01*
X145800000Y-112050000D01*
X145890864Y-112032903D01*
X145974318Y-111979202D01*
X146030304Y-111897264D01*
X146048413Y-111807839D01*
X146093388Y-111877732D01*
X146176931Y-111934815D01*
X146276100Y-111954897D01*
X146976100Y-111954897D01*
X147068744Y-111937465D01*
X147153832Y-111882712D01*
X147210915Y-111799169D01*
X147230997Y-111700000D01*
X147230997Y-109900000D01*
X147213565Y-109807356D01*
X147163721Y-109729897D01*
X147339753Y-109729897D01*
X147291285Y-109800831D01*
X147271203Y-109900000D01*
X147271203Y-111700000D01*
X147288635Y-111792644D01*
X147343388Y-111877732D01*
X147426931Y-111934815D01*
X147526100Y-111954897D01*
X148226100Y-111954897D01*
X148318744Y-111937465D01*
X148403832Y-111882712D01*
X148460915Y-111799169D01*
X148480997Y-111700000D01*
X148480997Y-109900000D01*
X148521203Y-109900000D01*
X148521203Y-111700000D01*
X148538635Y-111792644D01*
X148593388Y-111877732D01*
X148676931Y-111934815D01*
X148776100Y-111954897D01*
X149476100Y-111954897D01*
X149568744Y-111937465D01*
X149653832Y-111882712D01*
X149710915Y-111799169D01*
X149730997Y-111700000D01*
X149730997Y-109900000D01*
X149771203Y-109900000D01*
X149771203Y-111700000D01*
X149788635Y-111792644D01*
X149843388Y-111877732D01*
X149926931Y-111934815D01*
X150026100Y-111954897D01*
X150726100Y-111954897D01*
X150818744Y-111937465D01*
X150903832Y-111882712D01*
X150960915Y-111799169D01*
X150980997Y-111700000D01*
X150980997Y-111012500D01*
X151026100Y-111012500D01*
X151026100Y-111749728D01*
X151064160Y-111841614D01*
X151134486Y-111911940D01*
X151226372Y-111950000D01*
X151413600Y-111950000D01*
X151476100Y-111887500D01*
X151476100Y-110950000D01*
X151776100Y-110950000D01*
X151776100Y-111887500D01*
X151838600Y-111950000D01*
X152025828Y-111950000D01*
X152117714Y-111911940D01*
X152188040Y-111841614D01*
X152226100Y-111749728D01*
X152226100Y-111012500D01*
X152163600Y-110950000D01*
X151776100Y-110950000D01*
X151476100Y-110950000D01*
X151088600Y-110950000D01*
X151026100Y-111012500D01*
X150980997Y-111012500D01*
X150980997Y-109900000D01*
X150971641Y-109850272D01*
X151026100Y-109850272D01*
X151026100Y-110587500D01*
X151088600Y-110650000D01*
X151476100Y-110650000D01*
X151476100Y-109712500D01*
X151776100Y-109712500D01*
X151776100Y-110650000D01*
X152163600Y-110650000D01*
X152226100Y-110587500D01*
X152226100Y-109850272D01*
X152188040Y-109758386D01*
X152117714Y-109688060D01*
X152025828Y-109650000D01*
X151838600Y-109650000D01*
X151776100Y-109712500D01*
X151476100Y-109712500D01*
X151413600Y-109650000D01*
X151226372Y-109650000D01*
X151134486Y-109688060D01*
X151064160Y-109758386D01*
X151026100Y-109850272D01*
X150971641Y-109850272D01*
X150963565Y-109807356D01*
X150908812Y-109722268D01*
X150825269Y-109665185D01*
X150726100Y-109645103D01*
X150026100Y-109645103D01*
X149933456Y-109662535D01*
X149848368Y-109717288D01*
X149791285Y-109800831D01*
X149771203Y-109900000D01*
X149730997Y-109900000D01*
X149713565Y-109807356D01*
X149658812Y-109722268D01*
X149575269Y-109665185D01*
X149476100Y-109645103D01*
X148776100Y-109645103D01*
X148683456Y-109662535D01*
X148598368Y-109717288D01*
X148541285Y-109800831D01*
X148521203Y-109900000D01*
X148480997Y-109900000D01*
X148463565Y-109807356D01*
X148408812Y-109722268D01*
X148364464Y-109691966D01*
X149531420Y-108525010D01*
X149976090Y-108525010D01*
X150119597Y-108496465D01*
X150241255Y-108415175D01*
X150358390Y-108298040D01*
X157799827Y-108298040D01*
X157951747Y-108665714D01*
X158232806Y-108947264D01*
X158600215Y-109099826D01*
X158998040Y-109100173D01*
X159365714Y-108948253D01*
X159647264Y-108667194D01*
X159799826Y-108299785D01*
X159800173Y-107901960D01*
X159648253Y-107534286D01*
X159367194Y-107252736D01*
X158999785Y-107100174D01*
X158601960Y-107099827D01*
X158234286Y-107251747D01*
X157952736Y-107532806D01*
X157800174Y-107900215D01*
X157799827Y-108298040D01*
X150358390Y-108298040D01*
X155151430Y-103505000D01*
X157810000Y-103505000D01*
X157953507Y-103476455D01*
X158075165Y-103395165D01*
X158350390Y-103119940D01*
X158538824Y-103120104D01*
X158759429Y-103028952D01*
X158928359Y-102860317D01*
X159019896Y-102639871D01*
X159020104Y-102401176D01*
X158928952Y-102180571D01*
X158760317Y-102011641D01*
X158539871Y-101920104D01*
X158301176Y-101919896D01*
X158080571Y-102011048D01*
X157911641Y-102179683D01*
X157820104Y-102400129D01*
X157819939Y-102589731D01*
X157654670Y-102755000D01*
X155165330Y-102755000D01*
X155220390Y-102699940D01*
X155408824Y-102700104D01*
X155629429Y-102608952D01*
X155798359Y-102440317D01*
X155889896Y-102219871D01*
X155890104Y-101981176D01*
X155798952Y-101760571D01*
X155630317Y-101591641D01*
X155409871Y-101500104D01*
X155171176Y-101499896D01*
X154950571Y-101591048D01*
X154781641Y-101759683D01*
X154690104Y-101980129D01*
X154689939Y-102169731D01*
X149534670Y-107325000D01*
X147604897Y-107325000D01*
X147587465Y-107232356D01*
X147532712Y-107147268D01*
X147449169Y-107090185D01*
X147350000Y-107070103D01*
X146283451Y-107070103D01*
X146776777Y-106576777D01*
X146830304Y-106497264D01*
X146850000Y-106400000D01*
X146850000Y-105200000D01*
X146832903Y-105109136D01*
X146779202Y-105025682D01*
X146697264Y-104969696D01*
X146600000Y-104950000D01*
X144200000Y-104950000D01*
X144105927Y-104968375D01*
X144023223Y-105023223D01*
X141823223Y-107223223D01*
X141769696Y-107302736D01*
X141750000Y-107400000D01*
X141068822Y-107400000D01*
X141061940Y-107383386D01*
X140991614Y-107313060D01*
X140899728Y-107275000D01*
X140012500Y-107275000D01*
X139950000Y-107337500D01*
X139650000Y-107337500D01*
X139587500Y-107275000D01*
X138700272Y-107275000D01*
X138608386Y-107313060D01*
X138538060Y-107383386D01*
X138500000Y-107475272D01*
X136325000Y-107475272D01*
X136325000Y-101410000D01*
X137810000Y-101410000D01*
X137810000Y-105580000D01*
X137827097Y-105670864D01*
X137880798Y-105754318D01*
X137962736Y-105810304D01*
X138060000Y-105830000D01*
X142587722Y-105830000D01*
X142681935Y-105811568D01*
X142764605Y-105756670D01*
X143592715Y-104927561D01*
X143607714Y-104921364D01*
X143790722Y-104738676D01*
X143797374Y-104722656D01*
X143862853Y-104657098D01*
X150779895Y-104660000D01*
X150870864Y-104642903D01*
X150954318Y-104589202D01*
X151010304Y-104507264D01*
X151030000Y-104410000D01*
X151030000Y-101800000D01*
X151013686Y-101711170D01*
X150960715Y-101627252D01*
X150879269Y-101570553D01*
X150782180Y-101550010D01*
X147342180Y-101520010D01*
X147245927Y-101538375D01*
X147163223Y-101593223D01*
X146726446Y-102030000D01*
X143953554Y-102030000D01*
X143336054Y-101412500D01*
X144075000Y-101412500D01*
X144075000Y-101724728D01*
X144113060Y-101816614D01*
X144183386Y-101886940D01*
X144275272Y-101925000D01*
X145187500Y-101925000D01*
X145250000Y-101862500D01*
X145250000Y-101350000D01*
X145550000Y-101350000D01*
X145550000Y-101862500D01*
X145612500Y-101925000D01*
X146524728Y-101925000D01*
X146616614Y-101886940D01*
X146686940Y-101816614D01*
X146725000Y-101724728D01*
X146725000Y-101412500D01*
X146662500Y-101350000D01*
X145550000Y-101350000D01*
X145250000Y-101350000D01*
X144137500Y-101350000D01*
X144075000Y-101412500D01*
X143336054Y-101412500D01*
X143156777Y-101233223D01*
X143077264Y-101179696D01*
X142980000Y-101160000D01*
X138060000Y-101160000D01*
X137969136Y-101177097D01*
X137885682Y-101230798D01*
X137829696Y-101312736D01*
X137810000Y-101410000D01*
X136325000Y-101410000D01*
X136325000Y-100298040D01*
X137199827Y-100298040D01*
X137351747Y-100665714D01*
X137632806Y-100947264D01*
X138000215Y-101099826D01*
X138398040Y-101100173D01*
X138765714Y-100948253D01*
X139039171Y-100675272D01*
X144075000Y-100675272D01*
X144075000Y-100987500D01*
X144137500Y-101050000D01*
X145250000Y-101050000D01*
X145250000Y-100537500D01*
X145550000Y-100537500D01*
X145550000Y-101050000D01*
X146662500Y-101050000D01*
X146725000Y-100987500D01*
X146725000Y-100675272D01*
X146686940Y-100583386D01*
X146616614Y-100513060D01*
X146524728Y-100475000D01*
X145612500Y-100475000D01*
X145550000Y-100537500D01*
X145250000Y-100537500D01*
X145187500Y-100475000D01*
X144275272Y-100475000D01*
X144183386Y-100513060D01*
X144113060Y-100583386D01*
X144075000Y-100675272D01*
X139039171Y-100675272D01*
X139047264Y-100667194D01*
X139199826Y-100299785D01*
X139200173Y-99901960D01*
X139121890Y-99712500D01*
X147175000Y-99712500D01*
X147175000Y-100599728D01*
X147213060Y-100691614D01*
X147283386Y-100761940D01*
X147375272Y-100800000D01*
X148887500Y-100800000D01*
X148950000Y-100737500D01*
X148950000Y-99650000D01*
X149250000Y-99650000D01*
X149250000Y-100737500D01*
X149312500Y-100800000D01*
X150824728Y-100800000D01*
X150916614Y-100761940D01*
X150986940Y-100691614D01*
X151025000Y-100599728D01*
X151025000Y-99712500D01*
X150962500Y-99650000D01*
X149250000Y-99650000D01*
X148950000Y-99650000D01*
X147237500Y-99650000D01*
X147175000Y-99712500D01*
X139121890Y-99712500D01*
X139048253Y-99534286D01*
X138767194Y-99252736D01*
X138399785Y-99100174D01*
X138001960Y-99099827D01*
X137634286Y-99251747D01*
X137352736Y-99532806D01*
X137200174Y-99900215D01*
X137199827Y-100298040D01*
X136325000Y-100298040D01*
X136325000Y-98400272D01*
X147175000Y-98400272D01*
X147175000Y-99287500D01*
X147237500Y-99350000D01*
X148950000Y-99350000D01*
X148950000Y-98262500D01*
X149250000Y-98262500D01*
X149250000Y-99350000D01*
X150962500Y-99350000D01*
X151025000Y-99287500D01*
X151025000Y-98400272D01*
X150986940Y-98308386D01*
X150916614Y-98238060D01*
X150824728Y-98200000D01*
X149312500Y-98200000D01*
X149250000Y-98262500D01*
X148950000Y-98262500D01*
X148887500Y-98200000D01*
X147375272Y-98200000D01*
X147283386Y-98238060D01*
X147213060Y-98308386D01*
X147175000Y-98400272D01*
X136325000Y-98400272D01*
X136325000Y-92325000D01*
X160675000Y-92325000D01*
X160675000Y-116675000D01*
X160675000Y-116675000D01*
G37*
X160675000Y-116675000D02*
X158984006Y-116675000D01*
X159005916Y-116672616D01*
X159171427Y-116604059D01*
X159262337Y-116474469D01*
X158700000Y-115912132D01*
X158137663Y-116474469D01*
X158228573Y-116604059D01*
X158471328Y-116675000D01*
X136325000Y-116675000D01*
X136325000Y-115610426D01*
X157684351Y-115610426D01*
X157727384Y-116005916D01*
X157795941Y-116171427D01*
X157925531Y-116262337D01*
X158487868Y-115700000D01*
X158912132Y-115700000D01*
X159474469Y-116262337D01*
X159604059Y-116171427D01*
X159715649Y-115789574D01*
X159672616Y-115394084D01*
X159604059Y-115228573D01*
X159474469Y-115137663D01*
X158912132Y-115700000D01*
X158487868Y-115700000D01*
X157925531Y-115137663D01*
X157795941Y-115228573D01*
X157684351Y-115610426D01*
X136325000Y-115610426D01*
X136325000Y-113000000D01*
X142771203Y-113000000D01*
X142771203Y-115200000D01*
X142788635Y-115292644D01*
X142843388Y-115377732D01*
X142926931Y-115434815D01*
X143026100Y-115454897D01*
X144626100Y-115454897D01*
X144718744Y-115437465D01*
X144803832Y-115382712D01*
X144860915Y-115299169D01*
X144880997Y-115200000D01*
X144880997Y-113000000D01*
X152121203Y-113000000D01*
X152121203Y-115200000D01*
X152138635Y-115292644D01*
X152193388Y-115377732D01*
X152276931Y-115434815D01*
X152376100Y-115454897D01*
X153976100Y-115454897D01*
X154068744Y-115437465D01*
X154153832Y-115382712D01*
X154210915Y-115299169D01*
X154230997Y-115200000D01*
X154230997Y-114925531D01*
X158137663Y-114925531D01*
X158700000Y-115487868D01*
X159262337Y-114925531D01*
X159171427Y-114795941D01*
X158789574Y-114684351D01*
X158394084Y-114727384D01*
X158228573Y-114795941D01*
X158137663Y-114925531D01*
X154230997Y-114925531D01*
X154230997Y-113000000D01*
X154213565Y-112907356D01*
X154158812Y-112822268D01*
X154075269Y-112765185D01*
X153976100Y-112745103D01*
X152376100Y-112745103D01*
X152283456Y-112762535D01*
X152198368Y-112817288D01*
X152141285Y-112900831D01*
X152121203Y-113000000D01*
X144880997Y-113000000D01*
X144863565Y-112907356D01*
X144808812Y-112822268D01*
X144725269Y-112765185D01*
X144626100Y-112745103D01*
X143026100Y-112745103D01*
X142933456Y-112762535D01*
X142848368Y-112817288D01*
X142791285Y-112900831D01*
X142771203Y-113000000D01*
X136325000Y-113000000D01*
X136325000Y-109412500D01*
X138500000Y-109412500D01*
X138500000Y-110924728D01*
X138538060Y-111016614D01*
X138608386Y-111086940D01*
X138700272Y-111125000D01*
X139587500Y-111125000D01*
X139650000Y-111062500D01*
X139650000Y-109350000D01*
X139950000Y-109350000D01*
X139950000Y-111062500D01*
X140012500Y-111125000D01*
X140899728Y-111125000D01*
X140991614Y-111086940D01*
X141061940Y-111016614D01*
X141100000Y-110924728D01*
X141100000Y-109412500D01*
X141037500Y-109350000D01*
X139950000Y-109350000D01*
X139650000Y-109350000D01*
X138562500Y-109350000D01*
X138500000Y-109412500D01*
X136325000Y-109412500D01*
X136325000Y-107475272D01*
X138500000Y-107475272D01*
X138500000Y-108987500D01*
X138562500Y-109050000D01*
X139650000Y-109050000D01*
X139650000Y-107337500D01*
X139950000Y-107337500D01*
X139950000Y-109050000D01*
X141037500Y-109050000D01*
X141100000Y-108987500D01*
X141100000Y-107475272D01*
X141068822Y-107400000D01*
X141750000Y-107400000D01*
X141750000Y-111000000D01*
X141767097Y-111090864D01*
X141820798Y-111174318D01*
X141902736Y-111230304D01*
X142000000Y-111250000D01*
X143996446Y-111250000D01*
X144723223Y-111976777D01*
X144802736Y-112030304D01*
X144900000Y-112050000D01*
X145800000Y-112050000D01*
X145890864Y-112032903D01*
X145974318Y-111979202D01*
X146030304Y-111897264D01*
X146048413Y-111807839D01*
X146093388Y-111877732D01*
X146176931Y-111934815D01*
X146276100Y-111954897D01*
X146976100Y-111954897D01*
X147068744Y-111937465D01*
X147153832Y-111882712D01*
X147210915Y-111799169D01*
X147230997Y-111700000D01*
X147230997Y-109900000D01*
X147213565Y-109807356D01*
X147163721Y-109729897D01*
X147339753Y-109729897D01*
X147291285Y-109800831D01*
X147271203Y-109900000D01*
X147271203Y-111700000D01*
X147288635Y-111792644D01*
X147343388Y-111877732D01*
X147426931Y-111934815D01*
X147526100Y-111954897D01*
X148226100Y-111954897D01*
X148318744Y-111937465D01*
X148403832Y-111882712D01*
X148460915Y-111799169D01*
X148480997Y-111700000D01*
X148480997Y-109900000D01*
X148521203Y-109900000D01*
X148521203Y-111700000D01*
X148538635Y-111792644D01*
X148593388Y-111877732D01*
X148676931Y-111934815D01*
X148776100Y-111954897D01*
X149476100Y-111954897D01*
X149568744Y-111937465D01*
X149653832Y-111882712D01*
X149710915Y-111799169D01*
X149730997Y-111700000D01*
X149730997Y-109900000D01*
X149771203Y-109900000D01*
X149771203Y-111700000D01*
X149788635Y-111792644D01*
X149843388Y-111877732D01*
X149926931Y-111934815D01*
X150026100Y-111954897D01*
X150726100Y-111954897D01*
X150818744Y-111937465D01*
X150903832Y-111882712D01*
X150960915Y-111799169D01*
X150980997Y-111700000D01*
X150980997Y-111012500D01*
X151026100Y-111012500D01*
X151026100Y-111749728D01*
X151064160Y-111841614D01*
X151134486Y-111911940D01*
X151226372Y-111950000D01*
X151413600Y-111950000D01*
X151476100Y-111887500D01*
X151476100Y-110950000D01*
X151776100Y-110950000D01*
X151776100Y-111887500D01*
X151838600Y-111950000D01*
X152025828Y-111950000D01*
X152117714Y-111911940D01*
X152188040Y-111841614D01*
X152226100Y-111749728D01*
X152226100Y-111012500D01*
X152163600Y-110950000D01*
X151776100Y-110950000D01*
X151476100Y-110950000D01*
X151088600Y-110950000D01*
X151026100Y-111012500D01*
X150980997Y-111012500D01*
X150980997Y-109900000D01*
X150971641Y-109850272D01*
X151026100Y-109850272D01*
X151026100Y-110587500D01*
X151088600Y-110650000D01*
X151476100Y-110650000D01*
X151476100Y-109712500D01*
X151776100Y-109712500D01*
X151776100Y-110650000D01*
X152163600Y-110650000D01*
X152226100Y-110587500D01*
X152226100Y-109850272D01*
X152188040Y-109758386D01*
X152117714Y-109688060D01*
X152025828Y-109650000D01*
X151838600Y-109650000D01*
X151776100Y-109712500D01*
X151476100Y-109712500D01*
X151413600Y-109650000D01*
X151226372Y-109650000D01*
X151134486Y-109688060D01*
X151064160Y-109758386D01*
X151026100Y-109850272D01*
X150971641Y-109850272D01*
X150963565Y-109807356D01*
X150908812Y-109722268D01*
X150825269Y-109665185D01*
X150726100Y-109645103D01*
X150026100Y-109645103D01*
X149933456Y-109662535D01*
X149848368Y-109717288D01*
X149791285Y-109800831D01*
X149771203Y-109900000D01*
X149730997Y-109900000D01*
X149713565Y-109807356D01*
X149658812Y-109722268D01*
X149575269Y-109665185D01*
X149476100Y-109645103D01*
X148776100Y-109645103D01*
X148683456Y-109662535D01*
X148598368Y-109717288D01*
X148541285Y-109800831D01*
X148521203Y-109900000D01*
X148480997Y-109900000D01*
X148463565Y-109807356D01*
X148408812Y-109722268D01*
X148364464Y-109691966D01*
X149531420Y-108525010D01*
X149976090Y-108525010D01*
X150119597Y-108496465D01*
X150241255Y-108415175D01*
X150358390Y-108298040D01*
X157799827Y-108298040D01*
X157951747Y-108665714D01*
X158232806Y-108947264D01*
X158600215Y-109099826D01*
X158998040Y-109100173D01*
X159365714Y-108948253D01*
X159647264Y-108667194D01*
X159799826Y-108299785D01*
X159800173Y-107901960D01*
X159648253Y-107534286D01*
X159367194Y-107252736D01*
X158999785Y-107100174D01*
X158601960Y-107099827D01*
X158234286Y-107251747D01*
X157952736Y-107532806D01*
X157800174Y-107900215D01*
X157799827Y-108298040D01*
X150358390Y-108298040D01*
X155151430Y-103505000D01*
X157810000Y-103505000D01*
X157953507Y-103476455D01*
X158075165Y-103395165D01*
X158350390Y-103119940D01*
X158538824Y-103120104D01*
X158759429Y-103028952D01*
X158928359Y-102860317D01*
X159019896Y-102639871D01*
X159020104Y-102401176D01*
X158928952Y-102180571D01*
X158760317Y-102011641D01*
X158539871Y-101920104D01*
X158301176Y-101919896D01*
X158080571Y-102011048D01*
X157911641Y-102179683D01*
X157820104Y-102400129D01*
X157819939Y-102589731D01*
X157654670Y-102755000D01*
X155165330Y-102755000D01*
X155220390Y-102699940D01*
X155408824Y-102700104D01*
X155629429Y-102608952D01*
X155798359Y-102440317D01*
X155889896Y-102219871D01*
X155890104Y-101981176D01*
X155798952Y-101760571D01*
X155630317Y-101591641D01*
X155409871Y-101500104D01*
X155171176Y-101499896D01*
X154950571Y-101591048D01*
X154781641Y-101759683D01*
X154690104Y-101980129D01*
X154689939Y-102169731D01*
X149534670Y-107325000D01*
X147604897Y-107325000D01*
X147587465Y-107232356D01*
X147532712Y-107147268D01*
X147449169Y-107090185D01*
X147350000Y-107070103D01*
X146283451Y-107070103D01*
X146776777Y-106576777D01*
X146830304Y-106497264D01*
X146850000Y-106400000D01*
X146850000Y-105200000D01*
X146832903Y-105109136D01*
X146779202Y-105025682D01*
X146697264Y-104969696D01*
X146600000Y-104950000D01*
X144200000Y-104950000D01*
X144105927Y-104968375D01*
X144023223Y-105023223D01*
X141823223Y-107223223D01*
X141769696Y-107302736D01*
X141750000Y-107400000D01*
X141068822Y-107400000D01*
X141061940Y-107383386D01*
X140991614Y-107313060D01*
X140899728Y-107275000D01*
X140012500Y-107275000D01*
X139950000Y-107337500D01*
X139650000Y-107337500D01*
X139587500Y-107275000D01*
X138700272Y-107275000D01*
X138608386Y-107313060D01*
X138538060Y-107383386D01*
X138500000Y-107475272D01*
X136325000Y-107475272D01*
X136325000Y-101410000D01*
X137810000Y-101410000D01*
X137810000Y-105580000D01*
X137827097Y-105670864D01*
X137880798Y-105754318D01*
X137962736Y-105810304D01*
X138060000Y-105830000D01*
X142587722Y-105830000D01*
X142681935Y-105811568D01*
X142764605Y-105756670D01*
X143592715Y-104927561D01*
X143607714Y-104921364D01*
X143790722Y-104738676D01*
X143797374Y-104722656D01*
X143862853Y-104657098D01*
X150779895Y-104660000D01*
X150870864Y-104642903D01*
X150954318Y-104589202D01*
X151010304Y-104507264D01*
X151030000Y-104410000D01*
X151030000Y-101800000D01*
X151013686Y-101711170D01*
X150960715Y-101627252D01*
X150879269Y-101570553D01*
X150782180Y-101550010D01*
X147342180Y-101520010D01*
X147245927Y-101538375D01*
X147163223Y-101593223D01*
X146726446Y-102030000D01*
X143953554Y-102030000D01*
X143336054Y-101412500D01*
X144075000Y-101412500D01*
X144075000Y-101724728D01*
X144113060Y-101816614D01*
X144183386Y-101886940D01*
X144275272Y-101925000D01*
X145187500Y-101925000D01*
X145250000Y-101862500D01*
X145250000Y-101350000D01*
X145550000Y-101350000D01*
X145550000Y-101862500D01*
X145612500Y-101925000D01*
X146524728Y-101925000D01*
X146616614Y-101886940D01*
X146686940Y-101816614D01*
X146725000Y-101724728D01*
X146725000Y-101412500D01*
X146662500Y-101350000D01*
X145550000Y-101350000D01*
X145250000Y-101350000D01*
X144137500Y-101350000D01*
X144075000Y-101412500D01*
X143336054Y-101412500D01*
X143156777Y-101233223D01*
X143077264Y-101179696D01*
X142980000Y-101160000D01*
X138060000Y-101160000D01*
X137969136Y-101177097D01*
X137885682Y-101230798D01*
X137829696Y-101312736D01*
X137810000Y-101410000D01*
X136325000Y-101410000D01*
X136325000Y-100298040D01*
X137199827Y-100298040D01*
X137351747Y-100665714D01*
X137632806Y-100947264D01*
X138000215Y-101099826D01*
X138398040Y-101100173D01*
X138765714Y-100948253D01*
X139039171Y-100675272D01*
X144075000Y-100675272D01*
X144075000Y-100987500D01*
X144137500Y-101050000D01*
X145250000Y-101050000D01*
X145250000Y-100537500D01*
X145550000Y-100537500D01*
X145550000Y-101050000D01*
X146662500Y-101050000D01*
X146725000Y-100987500D01*
X146725000Y-100675272D01*
X146686940Y-100583386D01*
X146616614Y-100513060D01*
X146524728Y-100475000D01*
X145612500Y-100475000D01*
X145550000Y-100537500D01*
X145250000Y-100537500D01*
X145187500Y-100475000D01*
X144275272Y-100475000D01*
X144183386Y-100513060D01*
X144113060Y-100583386D01*
X144075000Y-100675272D01*
X139039171Y-100675272D01*
X139047264Y-100667194D01*
X139199826Y-100299785D01*
X139200173Y-99901960D01*
X139121890Y-99712500D01*
X147175000Y-99712500D01*
X147175000Y-100599728D01*
X147213060Y-100691614D01*
X147283386Y-100761940D01*
X147375272Y-100800000D01*
X148887500Y-100800000D01*
X148950000Y-100737500D01*
X148950000Y-99650000D01*
X149250000Y-99650000D01*
X149250000Y-100737500D01*
X149312500Y-100800000D01*
X150824728Y-100800000D01*
X150916614Y-100761940D01*
X150986940Y-100691614D01*
X151025000Y-100599728D01*
X151025000Y-99712500D01*
X150962500Y-99650000D01*
X149250000Y-99650000D01*
X148950000Y-99650000D01*
X147237500Y-99650000D01*
X147175000Y-99712500D01*
X139121890Y-99712500D01*
X139048253Y-99534286D01*
X138767194Y-99252736D01*
X138399785Y-99100174D01*
X138001960Y-99099827D01*
X137634286Y-99251747D01*
X137352736Y-99532806D01*
X137200174Y-99900215D01*
X137199827Y-100298040D01*
X136325000Y-100298040D01*
X136325000Y-98400272D01*
X147175000Y-98400272D01*
X147175000Y-99287500D01*
X147237500Y-99350000D01*
X148950000Y-99350000D01*
X148950000Y-98262500D01*
X149250000Y-98262500D01*
X149250000Y-99350000D01*
X150962500Y-99350000D01*
X151025000Y-99287500D01*
X151025000Y-98400272D01*
X150986940Y-98308386D01*
X150916614Y-98238060D01*
X150824728Y-98200000D01*
X149312500Y-98200000D01*
X149250000Y-98262500D01*
X148950000Y-98262500D01*
X148887500Y-98200000D01*
X147375272Y-98200000D01*
X147283386Y-98238060D01*
X147213060Y-98308386D01*
X147175000Y-98400272D01*
X136325000Y-98400272D01*
X136325000Y-92325000D01*
X160675000Y-92325000D01*
X160675000Y-116675000D01*
G36*
X143814645Y-102315355D02*
X143831185Y-102326325D01*
X143850000Y-102330000D01*
X146830000Y-102330000D01*
X146849453Y-102326061D01*
X146865355Y-102315355D01*
X147360529Y-101820181D01*
X150730000Y-101849566D01*
X150730000Y-104359979D01*
X143759276Y-104357054D01*
X143739822Y-104360985D01*
X143723878Y-104371720D01*
X142566993Y-105530000D01*
X138110000Y-105530000D01*
X138110000Y-101460000D01*
X142959290Y-101460000D01*
X143814645Y-102315355D01*
X143814645Y-102315355D01*
G37*
X143814645Y-102315355D02*
X143831185Y-102326325D01*
X143850000Y-102330000D01*
X146830000Y-102330000D01*
X146849453Y-102326061D01*
X146865355Y-102315355D01*
X147360529Y-101820181D01*
X150730000Y-101849566D01*
X150730000Y-104359979D01*
X143759276Y-104357054D01*
X143739822Y-104360985D01*
X143723878Y-104371720D01*
X142566993Y-105530000D01*
X138110000Y-105530000D01*
X138110000Y-101460000D01*
X142959290Y-101460000D01*
X143814645Y-102315355D01*
M02*
