M48
;DRILL file {KiCad 4.0.2-4+6225~38~ubuntu15.10.1-stable} date Ср. 27 апр. 2016 12:01:37
;FORMAT={-:-/ absolute / metric / decimal}
FMAT,2
METRIC,TZ
T1C0.300
T2C0.400
T3C1.000
%
G90
G05
M71
T1
X155.29Y-102.1
X158.42Y-102.52
T2
X136.8Y-98.2
X136.9Y-103.5
X136.9Y-105.3
X137.Y-101.6
X137.Y-109.6
X137.Y-111.7
X137.1Y-107.4
X137.93Y-110.52
X137.95Y-108.78
X138.Y-94.
X141.Y-94.
X142.31Y-104.07
X142.31Y-103.03
X142.31Y-105.05
X143.Y-97.
X143.24Y-102.41
X143.24Y-104.37
X143.62Y-103.4
X144.Y-94.
X146.Y-97.
X146.Y-115.
X147.Y-94.
X147.Y-113.
X148.Y-115.
X149.Y-97.
X149.Y-113.
X150.Y-94.
X150.Y-115.
X151.Y-113.
X151.9Y-108.6
X152.Y-97.
X152.Y-103.
X153.Y-94.
X153.Y-100.
X153.1Y-109.5
X153.5Y-107.6
X153.98Y-110.81
X154.4Y-106.1
X154.6Y-109.
X154.8Y-112.3
X155.Y-97.
X156.Y-94.
X158.Y-97.
X159.Y-94.
T3
X138.2Y-100.1
X158.7Y-115.7
X158.8Y-108.1
T0
M30
